<svg width="163" height="144" viewBox="0 0 163 144" fill="none" xmlns="http://www.w3.org/2000/svg">
<g filter="url(#filter0_d_12_8)">
<path d="M70.4706 19.7423C69.7268 22.0982 69.0415 23.7612 68.0637 25.4469C67.2188 26.9033 68.2285 28.8227 69.9108 28.7536L88.8767 27.975C90.5397 27.9068 91.4097 25.9353 90.5561 24.5065C89.5108 22.757 88.8025 20.9435 87.9447 18.3534C86.5394 11.8529 86.11 7.95677 85.9333 2.03893C85.9003 0.930689 84.982 0.0511077 83.8737 0.0795272L74.1598 0.328598C72.9605 0.359348 72.0625 1.43291 72.2006 2.6246C72.9237 8.86802 72.4324 12.9746 70.4706 19.7423Z" fill="#FC972F"/>
<path d="M17.2298 39.5436C30.7382 26.8518 40.7748 24.1723 56.335 25.9653C45.053 35.5331 40.4266 42.4702 35.153 57.6478C31.6889 72.6696 31.3424 81.3045 35.153 97.2962C41.1184 112.695 45.089 120.32 54.3436 130.427C39.0768 130.753 31.2843 127.384 18.8592 114.676C8.09371 101.597 5.51196 92.6157 4.1947 75.0279C5.05872 58.0001 7.05506 51.5843 17.2298 39.5436Z" fill="#EB671B"/>
<path d="M141.606 36.4658C127.224 24.7633 119.422 23.3766 105.76 25.9653C117.482 34.7496 122.58 41.4641 128.209 57.6478C131.997 74.3327 132.297 83.3123 129.114 98.5636C121.713 116.576 116.921 122.203 108.113 130.427C120.416 132.814 128.183 129.309 143.598 114.676C153.74 102.027 156.944 94.0965 158.805 78.6488C157.639 58.4694 153.282 49.6288 141.606 36.4658Z" fill="#EB671B"/>
<path d="M55.5985 32.173C62.1537 26.5557 67.228 24.4744 78.3801 23.7549C93.0576 24.2586 96.6243 25.4813 105.023 31.1657C114.988 39.3843 118.724 45.6943 122.765 57.1896C126.819 72.7176 127.508 81.5999 122.765 98.1053C118.037 111.54 113.847 117.193 105.023 125.624C97.2058 132.349 91.7626 135.219 78.5909 135.219C66.0049 134.7 60.9909 131.521 52.7018 122.365C45.7022 114.022 42.8756 108.335 39.3046 96.838C35.9363 80.382 36.0779 71.6861 40.2098 57.1896C44.104 45.1809 46.7593 40.073 55.5985 32.173Z" fill="black"/>
<path d="M63.1905 105.147V64.1096C63.1905 58.4309 67.794 53.8275 73.4727 53.8274H83.7548C87.5915 53.8274 90.9884 54.4995 93.9453 55.8436C96.9023 57.1632 99.2239 59.0938 100.91 61.6353C102.621 64.1768 103.476 67.2315 103.476 70.7994C103.476 74.4162 102.694 77.4831 101.13 80.0002C99.566 82.5173 97.2933 84.4357 94.3119 85.7553C91.3305 87.0749 87.7137 87.7348 83.4616 87.7348H75.3605V99.0616C75.3605 102.422 72.6361 105.147 69.2755 105.147H63.1905ZM75.3605 77.5442H83.1683C85.7343 77.5442 87.7259 77.0433 89.1433 76.0413C90.5852 75.0149 91.3061 73.3287 91.3061 70.9827C91.3061 68.6367 90.5607 66.9383 89.07 65.8874C87.6038 64.8122 85.661 64.2746 83.2416 64.2746H75.3605V77.5442Z" fill="white"/>
<path d="M132.581 49.8396C124.304 38.1869 118.366 33.59 106.177 26.1539C115.115 24.1212 120.861 24.0543 130.074 28.2996C140.178 33.8136 145.369 40.7218 150.38 47.8266C155.392 54.9313 158.699 65.2982 158.699 78.9424C157.481 93.2665 153.983 97.7293 142.858 107.795C133.837 114.839 128.071 116.403 117.807 120.463C123.41 115.137 126.47 111.895 131.415 104.51C136.078 97.3616 138.011 93.0151 140.769 84.9189C142.884 69.4831 138.593 62.5824 132.581 49.8396Z" fill="#F77521"/>
<path d="M31.7047 46.6547C39.8625 34.6124 46.2664 28.9447 56.264 26.055C47.1962 33.8325 43.0428 38.8275 38.5646 48.7097C33.9585 58.874 33.4392 65.0654 32.3549 76.1125C33.2438 90.0703 34.3754 97.6734 40.7448 110.461C35.4966 109.309 32.9645 107.036 28.9623 103.694C20.6741 93.0048 21.2254 88.455 21.9787 76.1125C24.1789 61.7852 26.4574 58.4151 31.7047 46.6547Z" fill="#F77521"/>
</g>
<defs>
<filter id="filter0_d_12_8" x="0.194702" y="0.0788574" width="162.611" height="143.14" filterUnits="userSpaceOnUse" color-interpolation-filters="sRGB">
<feFlood flood-opacity="0" result="BackgroundImageFix"/>
<feColorMatrix in="SourceAlpha" type="matrix" values="0 0 0 0 0 0 0 0 0 0 0 0 0 0 0 0 0 0 127 0" result="hardAlpha"/>
<feOffset dy="4"/>
<feGaussianBlur stdDeviation="2"/>
<feComposite in2="hardAlpha" operator="out"/>
<feColorMatrix type="matrix" values="0 0 0 0 0 0 0 0 0 0 0 0 0 0 0 0 0 0 0.25 0"/>
<feBlend mode="normal" in2="BackgroundImageFix" result="effect1_dropShadow_12_8"/>
<feBlend mode="normal" in="SourceGraphic" in2="effect1_dropShadow_12_8" result="shape"/>
</filter>
</defs>
</svg>
